<?xml version="1.0" standalone="no"?>
<!DOCTYPE svg PUBLIC "-//W3C//DTD SVG 20010904//EN"
 "http://www.w3.org/TR/2001/REC-SVG-20010904/DTD/svg10.dtd">
<svg version="1.0" xmlns="http://www.w3.org/2000/svg"
 width="272.000000pt" height="272.000000pt" viewBox="0 0 272.000000 272.000000"
 preserveAspectRatio="xMidYMid meet">
<metadata>
Created by potrace 1.11, written by Peter Selinger 2001-2013
</metadata>
<g transform="translate(0.000000,272.000000) scale(0.100000,-0.100000)"
fill="#000000" stroke="none">
<path d="M1328 2410 l-1148 -285 0 -58 c0 -55 1 -57 24 -51 16 4 25 1 30 -11
3 -9 11 -13 17 -9 8 4 7 9 -2 16 -14 10 -2 7 38 -9 10 -4 14 -3 9 5 -8 13 -1
17 39 25 l30 6 -30 -15 c-26 -13 -27 -14 -5 -9 133 29 168 40 185 55 31 26 55
33 48 12 -6 -14 -4 -15 9 -4 8 7 24 9 33 5 12 -4 16 -3 11 5 -8 13 -1 17 39
25 l30 6 -30 -14 c-16 -8 -26 -14 -22 -15 19 -1 103 24 112 33 7 7 4 8 -8 4
-11 -4 -16 -3 -12 3 3 6 15 10 26 10 11 0 17 -5 14 -10 -9 -15 47 0 60 15 6 7
19 15 30 19 l20 6 -20 -16 c-19 -16 -19 -16 5 -9 14 4 30 12 35 18 7 7 6 8 -2
3 -7 -4 -13 -2 -13 4 0 8 7 9 17 5 10 -4 24 -10 32 -13 9 -3 12 -1 7 6 -8 13
-1 17 39 25 l30 6 -30 -15 c-26 -13 -27 -14 -5 -9 128 28 167 39 180 50 8 6
22 15 30 19 8 4 6 0 -4 -8 -24 -20 -16 -20 27 -3 18 8 38 12 46 9 8 -3 11 0 7
6 -8 13 -1 17 39 25 l30 6 -30 -15 c-26 -13 -27 -14 -5 -9 14 3 40 8 58 12 17
3 32 10 32 15 0 5 -5 6 -12 2 -6 -4 -8 -3 -5 3 4 6 21 13 38 15 30 5 31 4 13
-9 -17 -13 -17 -14 11 -7 17 4 35 13 40 19 6 7 19 15 30 19 l20 6 -20 -16
c-19 -16 -19 -16 5 -9 14 4 30 12 35 18 7 7 6 8 -2 3 -7 -4 -13 -2 -13 4 0 7
7 9 15 6 8 -3 22 -9 32 -13 10 -4 14 -3 9 5 -8 13 -1 17 39 25 l30 6 -30 -15
c-33 -17 -40 -18 90 12 39 9 80 25 92 37 17 15 26 17 36 9 7 -6 18 -7 26 -2 8
4 21 6 29 2 10 -3 13 -1 8 6 -8 13 -1 17 39 25 l30 6 -30 -14 c-16 -8 -25 -14
-20 -14 20 0 104 25 112 33 4 5 0 6 -10 3 -10 -4 -16 -3 -13 2 3 5 20 11 37
13 30 5 31 4 13 -9 -17 -13 -17 -14 11 -7 17 4 35 13 40 19 6 7 19 15 30 19
l20 6 -20 -16 c-19 -16 -19 -16 5 -9 14 4 30 12 35 18 7 7 6 8 -2 3 -7 -4 -13
-2 -13 4 0 7 7 9 15 6 8 -3 22 -9 32 -13 10 -4 14 -3 9 5 -8 13 -1 17 39 25
l30 6 -30 -15 c-26 -13 -27 -14 -5 -9 131 29 168 40 184 54 12 10 16 11 11 2
-5 -10 -3 -12 11 -8 67 19 64 16 64 68 0 27 -3 49 -8 49 -4 0 -6 -18 -4 -41 3
-23 -1 -46 -8 -52 -9 -9 -10 -4 -6 23 4 19 1 51 -6 70 l-13 36 -1147 -286z
m1039 124 c-3 -3 -12 -4 -19 -1 -8 3 -5 6 6 6 11 1 17 -2 13 -5z m-640 -160
c-3 -3 -12 -4 -19 -1 -8 3 -5 6 6 6 11 1 17 -2 13 -5z m-640 -160 c-3 -3 -12
-4 -19 -1 -8 3 -5 6 6 6 11 1 17 -2 13 -5z m-282 -64 c3 -5 -1 -10 -10 -10 -9
0 -13 5 -10 10 3 6 8 10 10 10 2 0 7 -4 10 -10z m-358 -96 c-3 -3 -12 -4 -19
-1 -8 3 -5 6 6 6 11 1 17 -2 13 -5z"/>
<path d="M1810 2390 c-9 -6 -10 -10 -3 -10 6 0 15 5 18 10 8 12 4 12 -15 0z"/>
<path d="M2075 2276 l-170 -43 -3 -720 -2 -720 25 5 c18 3 25 0 25 -12 0 -9 5
-16 11 -16 5 0 7 5 3 11 -4 7 0 9 14 5 15 -5 27 -1 38 13 10 11 21 18 26 15 4
-3 18 0 30 6 22 11 22 11 3 -5 -11 -8 -26 -13 -35 -10 -10 4 -12 3 -5 -4 15
-15 53 -2 60 20 4 10 10 19 15 19 5 0 8 99 7 228 -2 224 -2 229 18 224 l20 -4
-20 17 c-19 16 -19 16 -1 10 19 -6 19 -5 3 13 -16 18 -14 32 5 32 5 0 6 -5 2
-12 -5 -7 -3 -8 7 -2 8 5 23 8 34 7 11 -2 14 0 8 3 -20 9 -15 24 8 24 11 0 17
-4 14 -10 -3 -5 1 -10 9 -10 19 0 30 17 14 22 -8 3 -6 7 5 11 10 4 16 2 14 -5
-1 -6 4 -13 12 -16 9 -3 11 0 6 8 -6 9 -1 10 16 5 23 -7 23 -6 5 7 -17 14 -17
15 -2 21 9 4 15 3 12 -2 -3 -5 1 -12 10 -15 8 -3 12 -2 9 4 -8 12 33 52 46 45
15 -10 0 -25 -19 -19 -13 5 -14 4 -3 -4 11 -8 11 -10 0 -15 -9 -4 -10 -6 -2
-6 7 -1 24 10 38 24 14 14 25 23 25 19 0 -4 11 3 25 16 22 20 23 25 10 43 -13
18 -12 23 8 43 13 13 27 48 34 81 10 51 11 53 10 16 -2 -29 1 -39 8 -32 6 6
11 106 13 254 3 204 1 249 -11 275 -9 17 -11 28 -6 25 12 -8 -5 37 -28 71 -9
15 -35 40 -57 55 -57 42 -127 38 -341 -15z m435 -337 c0 -116 -4 -179 -10
-179 -7 0 -10 65 -10 185 1 111 5 183 11 180 5 -4 9 -86 9 -186z m-340 151 c0
-5 -2 -10 -4 -10 -3 0 -8 5 -11 10 -3 6 -1 10 4 10 6 0 11 -4 11 -10z m98 0
c1 0 2 -101 2 -224 0 -209 -1 -225 -20 -249 -21 -26 -68 -45 -107 -44 -22 1
-22 2 -23 223 0 126 3 225 9 228 5 4 9 -81 10 -211 1 -119 4 -219 6 -222 3 -2
5 102 5 232 0 151 -4 237 -10 237 -5 0 -10 -5 -10 -12 0 -6 -3 -9 -6 -5 -3 3
-3 15 1 27 5 17 9 19 21 9 12 -10 18 -9 32 5 16 16 25 16 90 6z m166 -621 c-9
-11 -19 -17 -22 -14 -3 3 -10 0 -17 -5 -8 -7 -12 -5 -12 5 0 8 4 12 8 10 4 -3
10 3 13 12 6 15 8 15 16 3 8 -13 10 -12 10 3 0 10 5 15 11 12 7 -5 4 -14 -7
-26z"/>
<path d="M1470 2127 l-125 -32 -36 -280 c-20 -154 -62 -478 -93 -720 -31 -242
-59 -450 -61 -462 -4 -18 0 -22 22 -25 16 -2 27 -8 26 -15 -2 -8 6 -9 30 -2
17 5 34 9 37 9 3 0 -1 4 -8 9 -10 6 -8 10 8 14 17 4 20 2 16 -10 -5 -13 -4
-14 9 -3 8 7 13 15 11 19 -2 3 7 6 20 6 23 0 23 -1 7 -14 -16 -12 -16 -12 7
-6 14 4 30 12 35 18 7 7 6 8 -1 4 -16 -9 -21 11 -14 53 6 33 9 32 24 -10 3 -8
4 4 3 27 -2 34 -4 39 -16 30 -11 -10 -13 -6 -7 18 3 17 7 45 8 63 2 22 6 31
15 27 11 -4 11 0 2 18 -11 19 -10 20 3 9 21 -17 158 15 159 38 0 10 2 11 6 3
2 -7 11 -13 18 -13 7 0 15 -17 18 -42 20 -144 18 -138 41 -135 13 1 20 -3 18
-12 -2 -9 3 -11 13 -7 9 3 21 6 26 6 6 0 8 4 5 9 -3 5 1 12 10 15 8 3 12 2 9
-3 -11 -18 15 -22 42 -7 16 8 38 19 50 25 18 8 21 16 17 53 -3 34 -2 38 5 18
9 -24 9 -24 10 7 1 17 -4 35 -9 38 -6 4 -9 21 -7 38 2 18 2 24 0 15 -7 -28
-18 -21 -19 12 -1 17 3 30 7 30 5 0 8 12 8 28 -2 26 -2 26 -6 2 -5 -23 -6 -22
-18 13 -9 27 -10 48 -3 75 7 27 6 55 -2 93 -7 30 -12 69 -12 87 0 21 -4 32
-14 32 -8 0 -14 4 -14 9 0 5 -3 18 -6 28 -3 10 2 7 10 -7 l15 -25 0 40 c1 31
-2 37 -10 25 -8 -11 -9 -3 -4 32 4 28 2 49 -4 53 -7 4 -8 -1 -4 -12 3 -10 2
-15 -2 -10 -14 12 -36 169 -25 182 6 7 5 46 -4 106 -8 57 -14 78 -15 55 -1
-51 -7 -44 -15 19 -4 34 -3 45 4 35 7 -11 10 -8 9 15 0 17 -3 24 -6 17 -6 -16
-23 -6 -23 14 0 8 5 12 10 9 6 -4 10 7 10 27 0 25 -3 29 -10 18 -7 -11 -10 -8
-10 16 0 17 -7 47 -15 67 -8 19 -13 36 -10 38 10 11 15 89 5 89 -6 0 -8 -6 -4
-12 5 -9 2 -9 -9 1 -9 7 -17 20 -17 27 0 18 -4 18 -150 -19z m237 -464 c-3
-10 -5 -4 -5 12 0 17 2 24 5 18 2 -7 2 -21 0 -30z m-221 0 c-4 -9 -1 -22 5
-29 8 -10 68 -440 69 -497 0 -12 -48 -27 -100 -32 l-47 -4 0 42 0 42 13 -35
12 -35 1 36 c1 19 -5 41 -11 48 -11 10 -10 11 5 6 14 -6 17 -2 17 20 0 20 -4
26 -15 21 -8 -3 -15 -1 -15 4 0 6 7 10 16 10 11 0 14 6 9 20 -4 11 -2 20 4 20
6 0 11 7 11 15 0 18 -16 20 -23 3 -3 -8 -6 -6 -6 5 -1 9 6 17 15 17 11 0 14 6
9 20 -4 11 -2 20 4 20 6 0 11 8 11 18 0 13 -2 14 -9 4 -12 -20 -22 24 -11 51
5 14 9 16 10 7 0 -13 1 -13 10 0 13 20 13 93 0 85 -6 -3 -7 -17 -4 -30 3 -12
2 -25 -3 -28 -5 -3 -8 15 -6 41 4 49 11 141 12 155 1 5 6 5 12 2 6 -4 8 -14 5
-22z m304 -533 c0 -11 -4 -20 -9 -20 -5 0 -7 9 -4 20 3 11 7 20 9 20 2 0 4 -9
4 -20z m-304 -235 c-11 -8 -25 -15 -32 -15 -7 0 -21 -3 -31 -6 -12 -5 -15 -4
-8 4 6 6 26 15 45 20 47 14 48 14 26 -3z m284 -159 c0 -2 -9 -6 -20 -9 -11 -3
-18 -1 -14 4 5 9 34 13 34 5z m-533 -132 c-3 -3 -12 -4 -19 -1 -8 3 -5 6 6 6
11 1 17 -2 13 -5z"/>
<path d="M1477 1608 c-2 -7 -1 -22 4 -33 6 -16 8 -14 8 13 1 33 -4 41 -12 20z"/>
<path d="M530 2070 c-9 -6 -10 -10 -3 -10 6 0 15 5 18 10 8 12 4 12 -15 0z"/>
<path d="M1660 2027 c0 -14 5 -29 10 -32 7 -4 8 3 4 22 -9 38 -14 42 -14 10z"/>
<path d="M898 1983 c-99 -25 -139 -40 -142 -52 -2 -9 -28 -207 -57 -441 -46
-379 -54 -426 -70 -427 -9 -1 -20 5 -23 12 -3 9 0 12 10 8 19 -7 19 34 0 73
-17 36 -31 126 -16 104 8 -12 10 -12 10 5 0 11 -5 27 -11 35 -9 13 -10 12 -5
-2 3 -10 0 -18 -6 -18 -7 0 -9 23 -5 73 3 39 2 81 -3 92 -6 14 -9 16 -10 5 -1
-8 -6 3 -10 25 -4 22 -4 41 1 43 14 6 10 22 -5 22 -9 0 -12 7 -9 20 3 11 0 33
-5 50 -6 16 -7 30 -3 30 5 0 14 -21 19 -47 l11 -48 -5 55 c-3 31 -12 60 -20
67 -10 7 -12 13 -5 18 6 3 11 16 10 28 0 21 -1 21 -8 2 -6 -15 -11 -4 -19 45
-9 50 -9 66 1 72 8 5 6 8 -6 8 -11 0 -21 9 -24 20 -4 16 -11 18 -32 13 -14 -4
-82 -21 -151 -38 l-125 -31 -3 -717 -2 -717 38 0 c21 0 43 -5 49 -11 8 -8 17
-8 32 0 12 7 21 9 21 5 0 -3 7 -1 15 6 8 6 18 9 23 6 5 -3 9 1 9 8 0 8 -7 12
-16 9 -12 -3 -12 -2 2 7 9 6 17 19 18 28 0 10 6 5 14 -13 12 -26 14 24 15 364
0 217 2 396 4 398 1 2 24 -149 50 -335 56 -406 54 -392 73 -392 9 0 22 -8 29
-18 13 -16 14 -16 8 0 -5 14 -1 18 17 18 20 0 21 -2 9 -11 -12 -8 -9 -9 10 -4
14 3 30 7 37 7 6 1 9 7 6 15 -4 11 0 11 23 3 16 -6 25 -8 22 -4 -4 3 2 14 13
23 12 9 23 36 28 66 5 28 14 61 20 75 11 23 11 22 5 -10 -4 -19 -7 -50 -6 -67
0 -18 -4 -33 -9 -33 -5 0 -9 -9 -9 -21 0 -11 -4 -18 -9 -14 -5 3 -12 1 -16 -5
-7 -12 15 -13 33 -1 8 5 16 30 18 57 3 27 7 63 10 80 4 18 1 35 -5 38 -6 4
-11 22 -10 39 l1 32 13 -30 14 -30 1 35 c2 80 5 125 11 130 12 10 21 103 10
95 -7 -3 -11 2 -11 15 0 12 4 19 9 15 11 -6 20 33 26 110 2 28 4 50 5 50 2 0
8 36 15 80 11 72 12 45 14 -282 l1 -363 25 0 c16 0 25 -6 25 -16 0 -10 6 -14
18 -10 9 3 39 10 66 16 56 12 106 56 105 92 0 22 -1 22 -9 3 -5 -11 -9 272 -9
663 -1 448 2 682 9 682 6 0 10 5 10 11 0 6 -7 8 -16 5 -11 -4 -18 1 -21 14 -7
25 1 25 -165 -17z m-59 -744 c-13 -118 -25 -157 -25 -75 1 30 4 49 8 43 4 -7
8 9 8 34 0 49 10 112 16 106 3 -2 -1 -51 -7 -108z m-449 10 c0 -5 -4 -9 -10
-9 -5 0 -10 7 -10 16 0 8 5 12 10 9 6 -3 10 -10 10 -16z m0 -175 c0 -80 -4
-133 -9 -129 -11 6 -9 265 2 265 4 0 7 -61 7 -136z m417 -16 c-3 -8 -6 -5 -6
6 -1 11 2 17 5 13 3 -3 4 -12 1 -19z m-185 -30 c-7 -7 -12 -8 -12 -2 0 14 12
26 19 19 2 -3 -1 -11 -7 -17z m188 -15 c-1 -24 -2 -26 -11 -10 -5 9 -7 22 -4
27 10 17 15 11 15 -17z m-34 -175 c-19 -27 -20 -17 -3 31 10 28 13 31 15 13 2
-12 -4 -32 -12 -44z m-388 -177 c1 -120 -1 -202 -7 -205 -6 -4 -10 64 -9 181
0 162 3 223 11 223 1 0 3 -90 5 -199z m383 72 c-8 -14 -9 -9 -6 22 5 52 7 56
12 23 2 -15 0 -35 -6 -45z m256 -185 c-16 -6 -33 -6 -37 -2 -5 5 7 10 28 11
37 2 37 2 9 -9z m-77 -12 c0 -2 -7 -7 -16 -10 -8 -3 -12 -2 -9 4 6 10 25 14
25 6z"/>
<path d="M532 1785 c0 -16 2 -22 5 -12 2 9 2 23 0 30 -3 6 -5 -1 -5 -18z"/>
<path d="M1726 1575 c8 -37 14 -45 14 -19 0 10 -5 26 -10 34 -8 11 -9 7 -4
-15z"/>
<path d="M2475 1540 c-9 -16 -13 -30 -11 -30 3 0 12 14 21 30 9 17 13 30 11
30 -3 0 -12 -13 -21 -30z"/>
<path d="M1742 1500 c0 -14 2 -19 5 -12 2 6 2 18 0 25 -3 6 -5 1 -5 -13z"/>
<path d="M571 1494 c0 -11 3 -14 6 -6 3 7 2 16 -1 19 -3 4 -6 -2 -5 -13z"/>
<path d="M592 1340 c0 -14 2 -19 5 -12 2 6 2 18 0 25 -3 6 -5 1 -5 -13z"/>
<path d="M2408 1278 c-33 -9 -38 -14 -38 -39 0 -23 -3 -27 -17 -22 -10 4 -23
13 -29 21 -14 19 -73 9 -108 -19 l-26 -21 2 -156 3 -155 35 -20 c22 -12 36
-15 38 -8 2 6 12 11 23 11 10 0 19 4 19 8 0 5 7 9 15 9 11 0 12 -4 4 -14 -23
-27 9 -12 34 17 30 33 45 37 53 15 4 -8 15 -15 26 -15 19 0 20 6 16 95 -1 52
-1 91 0 85 2 -5 9 -10 14 -10 6 0 8 3 4 7 -3 4 4 13 16 20 18 10 20 12 6 13
-11 0 -18 8 -18 20 0 11 -6 20 -13 20 -9 0 -12 11 -9 34 3 29 9 36 33 41 16 4
29 13 29 22 0 12 -2 12 -16 -1 -8 -9 -23 -16 -32 -15 -13 0 -11 3 5 9 19 8 20
12 10 34 -13 28 -22 29 -79 14z m42 -75 c0 -16 -4 -33 -8 -40 -4 -6 -7 6 -7
28 0 21 3 39 7 39 5 0 8 -12 8 -27z m-90 -23 c0 -5 -2 -10 -4 -10 -3 0 -8 5
-11 10 -3 6 -1 10 4 10 6 0 11 -4 11 -10z m-88 -12 c-15 -15 -16 -38 -1 -38 6
0 9 7 5 15 -3 8 -1 15 4 15 6 0 10 -45 10 -108 0 -101 -1 -108 -20 -109 -20
-2 -21 3 -19 110 1 117 3 127 22 127 8 0 8 -3 -1 -12z m87 -163 c-1 -63 -4
-115 -5 -115 -11 0 -34 14 -34 21 0 4 6 6 14 3 9 -3 13 3 13 18 1 124 4 188 8
188 3 0 5 -52 4 -115z m84 -5 c0 -27 -3 -53 -6 -57 -4 -3 -7 22 -7 57 0 35 3
61 6 57 3 -3 6 -29 7 -57z m2 -90 c3 -5 1 -10 -4 -10 -6 0 -11 5 -11 10 0 6 2
10 4 10 3 0 8 -4 11 -10z"/>
<path d="M2139 1273 c-7 -37 -5 -383 2 -394 5 -8 9 67 9 194 0 114 -2 207 -5
207 -3 0 -6 -3 -6 -7z"/>
<path d="M1802 1050 c0 -19 2 -27 5 -17 2 9 2 25 0 35 -3 9 -5 1 -5 -18z"/>
<path d="M2495 1070 c-3 -5 -2 -10 4 -10 5 0 13 5 16 10 3 6 2 10 -4 10 -5 0
-13 -4 -16 -10z"/>
<path d="M2140 831 c0 -8 -7 -11 -17 -6 -15 5 -16 4 -5 -6 9 -10 15 -10 24 -1
6 6 9 15 5 19 -4 3 -7 1 -7 -6z"/>
<path d="M1387 790 c3 -11 7 -20 9 -20 2 0 4 9 4 20 0 11 -4 20 -9 20 -5 0 -7
-9 -4 -20z"/>
<path d="M1835 764 c0 -13 3 -24 8 -24 4 0 7 9 7 19 0 11 -3 22 -7 24 -5 3 -8
-6 -8 -19z"/>
<path d="M1315 436 l-1130 -282 -3 -58 c-3 -54 -2 -58 17 -53 11 2 30 -2 42
-11 12 -8 19 -11 16 -4 -8 11 30 28 40 18 4 -3 -2 -6 -12 -6 -10 0 -16 -2 -13
-5 3 -3 29 0 58 6 29 6 47 14 41 18 -14 9 59 34 109 37 27 2 30 0 15 -6 -30
-13 0 -12 32 1 26 10 27 12 8 19 -17 8 -16 8 7 7 15 -1 24 -5 21 -10 -2 -4 8
-5 24 -1 37 9 41 14 12 15 -22 0 -23 1 -4 9 11 5 34 8 50 8 29 0 29 0 5 -8
-49 -16 6 -9 66 8 33 9 59 22 57 27 -1 6 8 11 22 11 14 1 22 -2 19 -8 -9 -15
37 1 60 21 14 11 17 12 11 2 -6 -10 -4 -13 6 -9 8 3 41 11 73 18 41 8 55 15
45 21 -16 10 1 12 60 9 28 -1 33 1 28 15 -4 9 -3 14 2 11 5 -3 23 1 40 10 18
9 34 14 37 11 3 -2 -9 -9 -25 -15 -17 -6 -31 -14 -31 -18 0 -11 54 7 74 24 11
9 16 11 12 4 -6 -10 -1 -11 21 -6 35 9 42 14 17 14 -16 0 -17 2 -4 10 8 5 26
9 40 9 23 0 24 -1 5 -10 -17 -8 -17 -9 5 -4 99 20 130 31 125 43 -2 7 0 10 5
7 5 -3 20 -1 32 5 23 11 23 11 3 -6 -19 -16 -19 -16 10 -9 17 3 37 13 46 21 8
8 20 14 25 14 5 0 2 -5 -6 -11 -12 -9 -12 -10 3 -5 10 3 26 6 35 7 14 0 13 2
-3 10 -16 8 -14 8 11 5 36 -6 76 3 69 14 -3 4 16 8 41 8 25 1 52 6 58 12 7 5
15 7 18 5 3 -3 36 3 74 14 38 11 60 20 49 21 l-20 1 20 9 c11 5 29 9 40 9 l20
0 -20 -10 c-17 -8 -17 -9 5 -4 14 2 32 5 40 5 13 0 13 2 0 11 -12 9 -12 10 4
5 30 -10 88 4 82 20 -4 10 0 11 17 5 30 -12 309 59 303 76 -4 9 1 10 19 3 30
-11 85 6 85 27 0 10 7 13 23 8 17 -5 19 -4 7 4 -8 6 -10 11 -5 11 6 0 11 10
12 23 0 12 -1 16 -4 10 -5 -15 -23 -17 -23 -4 0 5 7 17 16 25 14 15 14 16 -5
16 -12 0 -21 6 -21 15 0 8 -8 15 -17 14 -10 0 -526 -128 -1148 -283z m902 88
c-3 -3 -12 -4 -19 -1 -8 3 -5 6 6 6 11 1 17 -2 13 -5z m-97 -18 c0 -2 -7 -7
-16 -10 -8 -3 -12 -2 -9 4 6 10 25 14 25 6z m-314 -81 c-23 -17 -36 -19 -36
-6 0 5 8 12 18 14 32 9 37 6 18 -8z m-856 -215 c-8 -5 -22 -10 -30 -10 -13 0
-13 1 0 10 8 5 22 10 30 10 13 0 13 -1 0 -10z m-600 -155 c0 -2 -9 -3 -19 -2
-11 0 -18 5 -15 9 4 6 34 0 34 -7z"/>
<path d="M1075 560 c3 -5 8 -10 11 -10 2 0 4 5 4 10 0 6 -5 10 -11 10 -5 0 -7
-4 -4 -10z"/>
<path d="M415 74 c-26 -13 -27 -14 -5 -10 14 3 31 6 38 6 6 0 12 5 12 10 0 13
-8 12 -45 -6z"/>
</g>
</svg>
